<svg id="svg" version="1.1" xmlns="http://www.w3.org/2000/svg" xmlns:xlink="http://www.w3.org/1999/xlink" width="400" height="447.22031571722715" viewBox="0, 0, 400,447.22031571722715"><g id="svgg"><path id="path0" d="M181.652 136.628 C 181.551 136.728,181.469 151.677,181.469 169.847 L 181.469 202.883 148.387 202.883 L 115.305 202.883 115.305 221.277 L 115.305 239.671 148.387 239.671 L 181.469 239.671 181.469 272.889 L 181.469 306.108 200.000 306.108 L 218.531 306.108 218.531 272.889 L 218.531 239.671 251.613 239.671 L 284.695 239.671 284.695 221.277 L 284.695 202.883 251.613 202.883 L 218.531 202.883 218.531 169.664 L 218.531 136.445 200.183 136.445 C 190.092 136.445,181.752 136.527,181.652 136.628 " stroke="none" fill="#fbfbfb" fill-rule="evenodd"></path><path id="path1" d="M196.984 0.300 C 184.988 1.585,175.156 10.848,173.069 22.829 C 172.660 25.178,172.648 28.305,173.031 32.735 C 173.088 33.405,57.555 100.797,55.154 101.494 C 54.892 101.570,54.064 101.053,53.113 100.220 C 40.618 89.287,21.362 89.997,9.594 101.826 C -6.849 118.356,-0.608 146.633,21.202 154.421 L 23.747 155.329 23.817 223.664 L 23.886 291.999 21.657 292.910 C 7.257 298.798,0.738 316.296,7.688 330.405 C 15.222 345.699,35.228 350.379,48.790 340.020 L 50.772 338.507 109.600 372.452 C 141.956 391.121,168.572 406.532,168.747 406.699 C 168.988 406.927,168.965 407.434,168.652 408.785 C 165.021 424.464,175.711 441.753,191.642 445.970 C 214.685 452.068,236.865 431.102,231.342 408.442 L 230.958 406.864 231.814 406.346 C 232.873 405.705,345.747 340.557,347.842 339.377 L 349.355 338.525 350.724 339.614 C 362.236 348.774,379.484 347.133,388.751 335.998 C 400.743 321.589,395.466 299.911,378.253 292.873 L 376.114 291.999 376.183 223.678 L 376.253 155.358 378.259 154.682 C 400.150 147.311,407.034 119.139,391.036 102.394 C 379.223 90.029,359.108 89.134,346.714 100.422 L 345.230 101.773 286.016 67.582 L 226.802 33.391 226.990 32.550 C 227.519 30.196,227.146 22.437,226.384 19.918 C 222.471 6.991,210.304 -1.128,196.984 0.300 M183.352 49.231 C 185.418 50.827,188.895 52.733,190.734 53.277 L 191.901 53.622 191.901 82.522 L 191.901 111.422 190.460 111.577 C 189.667 111.662,168.696 112.842,143.857 114.200 C 119.019 115.558,97.739 116.745,96.570 116.839 L 94.445 117.009 94.374 133.857 L 94.303 150.704 78.792 141.755 C 70.261 136.833,63.248 132.779,63.207 132.745 C 63.167 132.711,63.338 131.769,63.588 130.652 C 64.195 127.936,64.213 121.168,63.621 118.325 C 63.385 117.193,63.280 116.173,63.388 116.059 C 63.539 115.900,181.109 47.885,181.396 47.791 C 181.431 47.779,182.312 48.427,183.352 49.231 M277.647 81.860 C 310.137 100.609,336.764 115.984,336.819 116.025 C 336.874 116.066,336.719 117.187,336.475 118.517 C 335.912 121.584,335.902 127.109,336.453 130.269 C 336.684 131.593,336.835 132.714,336.789 132.760 C 336.743 132.806,329.852 136.801,321.476 141.639 L 306.246 150.434 306.077 146.116 C 305.984 143.741,305.892 136.221,305.871 129.404 L 305.834 117.010 303.706 116.839 C 302.536 116.745,281.256 115.558,256.417 114.200 C 231.579 112.842,210.607 111.662,209.815 111.577 L 208.373 111.422 208.373 82.500 L 208.373 53.577 209.403 53.247 C 211.313 52.636,215.111 50.527,216.758 49.165 C 217.658 48.421,218.434 47.803,218.484 47.791 C 218.534 47.779,245.157 63.110,277.647 81.860 M218.806 169.526 L 218.806 202.608 251.887 202.608 L 284.969 202.608 284.969 221.277 L 284.969 239.945 251.889 239.945 L 218.808 239.945 218.738 273.095 L 218.668 306.246 200.069 306.316 L 181.469 306.387 181.469 273.166 L 181.469 239.945 148.250 239.945 L 115.031 239.945 115.031 221.277 L 115.031 202.608 148.250 202.608 L 181.469 202.608 181.469 169.526 L 181.469 136.445 200.137 136.445 L 218.806 136.445 218.806 169.526 M74.674 158.494 L 94.303 169.830 94.470 202.760 C 94.561 220.871,94.726 236.122,94.836 236.651 C 94.946 237.179,95.279 239.094,95.576 240.906 C 96.671 247.582,99.008 256.145,101.745 263.510 C 102.562 265.707,103.137 267.593,103.022 267.702 C 102.908 267.812,91.109 274.655,76.803 282.909 L 50.791 297.917 48.937 296.521 C 47.002 295.063,43.154 292.961,41.386 292.394 L 40.356 292.064 40.425 223.711 L 40.494 155.358 42.498 154.683 C 46.293 153.405,50.496 150.981,53.397 148.396 C 54.152 147.723,54.832 147.170,54.907 147.166 C 54.983 147.162,63.878 152.260,74.674 158.494 M346.903 148.573 C 349.863 151.167,353.800 153.437,357.499 154.682 L 359.506 155.358 359.575 223.695 L 359.644 292.032 358.340 292.517 C 356.006 293.386,352.912 295.109,351.179 296.505 C 350.246 297.257,349.419 297.872,349.341 297.872 C 349.241 297.872,295.761 267.095,295.194 266.711 C 295.155 266.685,295.666 265.501,296.330 264.080 C 299.543 257.199,302.869 247.678,304.302 241.264 C 305.932 233.970,305.896 234.773,306.078 200.839 L 306.246 169.557 325.601 158.367 C 336.246 152.213,345.029 147.172,345.119 147.165 C 345.208 147.157,346.011 147.791,346.903 148.573 M364.173 199.996 C 364.173 200.602,363.319 200.904,362.872 200.456 C 362.410 199.995,362.866 199.265,363.554 199.363 C 363.959 199.421,364.173 199.639,364.173 199.996 M314.266 296.828 L 340.997 312.255 340.780 314.192 C 340.532 316.405,340.503 319.343,340.701 322.252 L 340.837 324.256 282.361 358.037 C 250.199 376.616,223.615 391.945,223.286 392.101 C 222.770 392.345,222.466 392.193,221.090 391.011 C 217.856 388.232,212.782 385.387,209.677 384.612 L 208.373 384.286 208.373 368.690 L 208.373 353.093 234.248 334.503 C 262.011 314.556,262.040 314.534,268.091 307.706 C 273.894 301.158,280.035 292.943,284.725 285.455 C 286.122 283.225,287.325 281.400,287.399 281.400 C 287.473 281.400,299.563 288.342,314.266 296.828 M115.935 291.252 C 125.010 304.616,127.531 306.815,163.966 333.142 L 191.764 353.229 191.835 368.661 C 191.891 380.867,191.834 384.116,191.560 384.208 C 186.394 385.934,183.124 387.656,179.601 390.506 C 177.322 392.349,177.233 392.392,176.547 391.998 C 176.159 391.774,149.556 376.415,117.429 357.867 L 59.018 324.142 59.228 322.743 C 59.496 320.954,59.499 315.443,59.232 313.658 L 59.028 312.286 84.761 297.431 L 110.495 282.576 112.225 285.457 C 113.177 287.042,114.846 289.649,115.935 291.252 " stroke="none" fill="#04c4cc" fill-rule="evenodd"></path><path id="path2" d="M115.165 221.414 L 115.168 239.808 148.387 239.809 L 181.606 239.811 148.458 239.740 L 115.309 239.668 115.236 221.344 L 115.162 203.020 115.165 221.414 M284.761 221.207 L 284.695 239.668 251.544 239.739 L 218.394 239.810 251.553 239.878 C 277.877 239.931,284.739 239.874,284.843 239.602 C 284.915 239.413,284.941 231.043,284.901 221.002 L 284.828 202.745 284.761 221.207 " stroke="none" fill="#8ce4e4" fill-rule="evenodd"></path><path id="path3" d="M131.868 202.814 C 141.052 202.854,156.001 202.854,165.086 202.814 C 174.172 202.774,166.658 202.741,148.387 202.741 C 130.117 202.741,122.683 202.774,131.868 202.814 M235.072 202.814 C 244.245 202.854,259.255 202.854,268.428 202.814 C 277.601 202.774,270.096 202.741,251.750 202.741 C 233.404 202.741,225.899 202.774,235.072 202.814 M190.872 306.314 C 195.968 306.356,204.307 306.356,209.403 306.314 C 214.499 306.272,210.329 306.238,200.137 306.238 C 189.945 306.238,185.776 306.272,190.872 306.314 " stroke="none" fill="#54d5dd" fill-rule="evenodd"></path><path id="path4" d="M218.664 169.526 C 218.664 187.797,218.697 195.312,218.737 186.226 C 218.777 177.140,218.777 162.191,218.737 153.007 C 218.697 143.822,218.664 151.256,218.664 169.526 M362.763 199.725 C 362.668 199.972,362.717 200.301,362.872 200.456 C 363.319 200.904,364.173 200.602,364.173 199.996 C 364.173 199.298,363.012 199.074,362.763 199.725 M218.664 273.027 C 218.664 291.297,218.697 298.812,218.737 289.726 C 218.777 280.640,218.777 265.692,218.737 256.507 C 218.697 247.323,218.664 254.756,218.664 273.027 " stroke="none" fill="#0cc4cc" fill-rule="evenodd"></path></g></svg>